<svg xmlns="http://www.w3.org/2000/svg" data-name="Layer 1" viewBox="0 0 200 250" x="0px" y="0px"><title>Artboard 2</title><path d="M17.18,49.37a3.41,3.41,0,0,0-.05,2.88,3.56,3.56,0,0,0,3.35,2,50.37,50.37,0,0,0,9.91,38.62c-5.5-2-12.14-1.81-16.94,1-1.1.65-.63,2.64.77,2.14l.57-.19a21.41,21.41,0,0,0,21,2.94,56.34,56.34,0,0,0,11.41,8.3c6.14,3.39,12.64,6.05,19,9a21.67,21.67,0,0,0-13.61,7.08c-.92,1.08.61,2.12,1.65,1.62C58,126.87,62.88,128,67,126.41c3-1.13,5.44-4,5.48-7.13a70,70,0,0,1,7.93,4.91,65.22,65.22,0,0,1,13.06,12.43,42.91,42.91,0,0,1,4.2,6.55,30.29,30.29,0,0,0-3.39,9.67c-.22,1.45,2.05,1.86,2.67.69,1-2,2-4,2.92-6,1,2,1.93,4,3,6,.77,1.43,3,.44,2.74-1a29.69,29.69,0,0,0-3.39-9.63,41.92,41.92,0,0,1,3-4.77,64.06,64.06,0,0,1,13.25-13.26,70.17,70.17,0,0,1,9-5.66,7.86,7.86,0,0,0,5.31,7.25c4.17,1.6,9,.43,12.87-1.6,1.15.58,2.62-.76,1.65-1.91-3.29-3.92-8.43-6.22-13.62-6.84,6.56-3.09,13.32-5.83,19.65-9.41a55.21,55.21,0,0,0,10.73-7.88,21.58,21.58,0,0,0,21-2.93l.5.17c1.24.44,2.26-1.43,1.08-2.15C181.8,90.93,175,90.8,169.44,93a50.48,50.48,0,0,0,10.09-38.74,3.74,3.74,0,0,0,3.29-2,3.36,3.36,0,0,0,0-2.89,1.08,1.08,0,0,0,.53-1.7,4.54,4.54,0,0,0-6.61-.16,4.16,4.16,0,0,0,.37,6,3.59,3.59,0,0,0,1.56.65,50.35,50.35,0,0,1-4.86,27.44c-.28-.27-.57-.53-.84-.8a57.5,57.5,0,0,0-5.47-21.61c-.42-.91-1.63-.56-2,.18,0-.11,0-.23,0-.34.06-.65-.94-.72-1.11-.15-2.56,8.75.93,19.08,7.95,24.79a1.34,1.34,0,0,0,.31.17q-1.2,2.2-2.58,4.27a44.34,44.34,0,0,1-7,8,1.36,1.36,0,0,0-.82.74,71.2,71.2,0,0,1-15.38,9.78l-.33-1.16c2.54-5,3.8-11.34,1.69-16.36-.31-.74-1.4-.6-1.85,0a.61.61,0,0,0-.16.16,21,21,0,0,0-2.21,17.3c-.33.65-.68,1.3-1.06,2,0,0,0,0,0,0l-3.27,1.47c-10,4.41-19.7,9-27.95,16.2a14.53,14.53,0,0,0-3.23-13.55c-.84-.85-2.67.28-2,1.37l.11.16c-3.44,4.66-1.54,10.87,2.54,14.35a68.31,68.31,0,0,0-9.18,10.77,66.26,66.26,0,0,0-9.32-10.91c4-3.52,6-9.66,2.49-14.29l.06-.09c.75-1.12-.85-2.28-1.77-1.34a14.77,14.77,0,0,0-3.47,13.27c-8.63-7.48-18.82-12-29.19-16.64L57,108.39c-.4-.68-.77-1.36-1.12-2a20.6,20.6,0,0,0-2.14-17.16,1.33,1.33,0,0,0-2.11.15c-2,5-.77,11.21,1.76,16.19-.1.34-.19.68-.29,1a71.21,71.21,0,0,1-15.47-9.91A.93.93,0,0,0,37,96a44.86,44.86,0,0,1-7.82-9.2c-.63-1-1.23-2-1.79-3.08l.15-.11c7-5.7,10.68-16,8.08-24.76a.58.58,0,0,0-1.12.2,1.3,1.3,0,0,0-2,.36A57.27,57.27,0,0,0,27,80.91l-.74.71a50.25,50.25,0,0,1-5-27.49,3.93,3.93,0,0,0,1.56-.7,4.22,4.22,0,0,0,.29-6.13,4.59,4.59,0,0,0-6.62.59C16,48.51,16.54,49.21,17.18,49.37Zm161.1-.68a2,2,0,0,1,1.73-.5.48.48,0,0,0,.24.17,2.33,2.33,0,0,1,1.22,3.4,2.26,2.26,0,0,1-3.29.14A2.39,2.39,0,0,1,178.28,48.69ZM165.47,60.14s0,.07,0,.11a81.37,81.37,0,0,1,5.68,18.53C166.82,73.47,165.06,67.34,165.47,60.14Zm17.86,35.15a22.9,22.9,0,0,1-17.23,1.52l.52-.56C172.33,93.7,177.32,93.54,183.33,95.29ZM145.48,99a23.55,23.55,0,0,1,1-6.39,25.22,25.22,0,0,1,.15,5.7,22.53,22.53,0,0,1-.81,3.87A18.12,18.12,0,0,1,145.48,99Zm-1,24.89c-2.83.63-5.7,1.55-8.6,1-3.59-.74-5.81-3.21-5.74-6.92a.66.66,0,0,0,0-.15l.23-.12C135.83,118.25,140.09,120.4,144.52,123.92Zm-37-8.57A13.93,13.93,0,0,1,110,125.79C107.11,123.17,106.59,119.39,107.52,115.35Zm-15.07,0c.91,4,.53,7.86-2.36,10.5A16.86,16.86,0,0,1,92.45,115.32Zm-22.63,2.62c.16,8.7-8.56,7-14.41,5.92,4.38-3.49,8.64-5.6,14-6.17l.39.2A.43.43,0,0,0,69.82,117.94ZM53.53,99.33a26.57,26.57,0,0,1,0-6.55,22.66,22.66,0,0,1,1,6.24,18.2,18.2,0,0,1-.32,3.16A22.7,22.7,0,0,1,53.53,99.33ZM16.67,95.24a22.63,22.63,0,0,1,16.65,1l.55.6A23,23,0,0,1,16.67,95.24ZM34.52,60.05c.46,7.34-1.27,13.57-5.77,19A81.7,81.7,0,0,1,34.52,60.05ZM21.63,48.7a2.41,2.41,0,0,1,.27,3.21,2.31,2.31,0,0,1-3.28-.11,2.26,2.26,0,0,1,1.05-3.44.59.59,0,0,0,.26-.17A2.11,2.11,0,0,1,21.63,48.7Z"/><path d="M40.19,87.45a1.46,1.46,0,0,0,.79.46c2,.43,3.09-2.49,1.46-3.62l-.12-.06a1.58,1.58,0,0,0-.54-.25,2.07,2.07,0,0,0-2.53,1.79A1.9,1.9,0,0,0,40.19,87.45Z"/><path d="M13.25,84.22l0,0A1.67,1.67,0,0,0,15.2,84a1.87,1.87,0,0,0,.42-.64,1.48,1.48,0,0,0-.46-2,1.53,1.53,0,0,0-1.07-.28,2,2,0,0,0-1.69,1.36A1.47,1.47,0,0,0,13.25,84.22Zm.83-1.34c-.05,0,.07-.12,0,0Z"/><path d="M76.47,110.23c2,.12,2.71-2.94.68-3.48a1.37,1.37,0,0,0-.91.09C74.48,107.21,74.49,110.11,76.47,110.23Zm0-1.71s0,0,0,0S76.45,108.51,76.46,108.52Z"/><path d="M80.55,134.08a2,2,0,0,0-.88,0,2.09,2.09,0,0,0-1.44,1.43,2.15,2.15,0,0,0,.47,2,1.23,1.23,0,0,0,1.24.32,3,3,0,0,0,1.38-.9,1.73,1.73,0,0,0,.64-.8,1.5,1.5,0,0,0,0-1.05A1.3,1.3,0,0,0,80.55,134.08Z"/><path d="M158.14,87.9a1.74,1.74,0,0,0,1.67-.52,2,2,0,0,0,.82-1A1.8,1.8,0,0,0,159.39,84a2.08,2.08,0,0,0-1.28.1C156.44,84.68,156.19,87.44,158.14,87.9Z"/><path d="M184.24,83.11a1.79,1.79,0,0,0,.23.56,1.63,1.63,0,0,0,1.94.68,2,2,0,0,0,.52-.3,1.57,1.57,0,0,0,.69-1,1.63,1.63,0,0,0-1-1.8,1.67,1.67,0,0,0-1.71.18,1.57,1.57,0,0,0-.72,1.57S184.23,83.07,184.24,83.11Z"/><path d="M123.57,110.2a1.89,1.89,0,0,0,1.52-1.72,1.56,1.56,0,0,0-1.21-1.64,1.2,1.2,0,0,0-.84-.09,1.85,1.85,0,0,0-1.4,2.12A1.63,1.63,0,0,0,123.57,110.2Z"/><path d="M119.46,134.1a1.47,1.47,0,0,0-1.37,1.15,1.54,1.54,0,0,0-.07,1,1.5,1.5,0,0,0,.65.84,2.5,2.5,0,0,0,1.21.81,1.45,1.45,0,0,0,1.53-.6,2,2,0,0,0-1-3.2A2,2,0,0,0,119.46,134.1Z"/><text x="0" y="215" fill="#000000" font-size="5px" font-weight="bold" font-family="'Helvetica Neue', Helvetica, Arial-Unicode, Arial, Sans-serif">Created by Caroline Mackay</text><text x="0" y="220" fill="#000000" font-size="5px" font-weight="bold" font-family="'Helvetica Neue', Helvetica, Arial-Unicode, Arial, Sans-serif">from the Noun Project</text></svg>